<?xml version="1.0" encoding="utf-8"?>
<!-- Generator: Adobe Illustrator 16.0.0, SVG Export Plug-In . SVG Version: 6.00 Build 0)  -->
<!DOCTYPE svg PUBLIC "-//W3C//DTD SVG 1.1//EN" "http://www.w3.org/Graphics/SVG/1.1/DTD/svg11.dtd">
<svg version="1.1" id="Ebene_1" xmlns="http://www.w3.org/2000/svg" xmlns:xlink="http://www.w3.org/1999/xlink" x="0px" y="0px"
	 width="595.28px" height="841.89px" viewBox="0 0 595.28 841.89" enable-background="new 0 0 595.28 841.89" xml:space="preserve">
<g>
	<g id="XMLID_1_">
		<g>
			<path fill="#FFFFFF" d="M317.8,293.99c5.25,15.73,11.11,31.27,16.23,47.05c3.649,11.23,5.399,22.87,4.06,34.73
				c-1.95,17.26-11.21,30.1-24.26,40.58c-0.42,0.34-0.84,0.68-1.271,1.01c-1.029,0.8-2.01,1.68-3.31,2.77
				c1.67,1.34,2.92,2.34,4.17,3.34c15.22,12.1,24.89,27.11,25.04,47.229c0.09,12.94-3.05,25.23-7.1,37.351
				c-5.69,17.03-12.391,33.78-17.11,51.07c-9.95,36.5,1.97,68.069,32.74,90.029c2.05,1.46,4.029,2.46,6.74,0.4
				c-2.12-1.74-4.12-3.34-6.091-4.99c-16.64-13.939-24.909-31.41-22.93-53.41c1.16-12.81,4.89-24.93,8.74-37.09
				c5.2-16.39,11.189-32.64,14.87-49.38c6.09-27.65-1.03-52.25-21.23-72.56c-4.2-4.221-8.83-8.021-13.52-12.25
				c0.63-0.5,1.25-0.99,1.87-1.5c0.619-0.49,1.25-0.99,1.869-1.49c15.391-12.41,26.931-27.37,31.221-47.13
				c3.5-16.08,1.64-31.89-3.05-47.36c-5.131-16.95-11.15-33.63-16.36-50.55c-3.92-12.74-6.05-25.83-3.91-39.2
				c2.68-16.75,12.21-29.21,25.271-39.36c1.079-0.85,2.069-1.81,3.109-2.72c-0.229-0.46-0.47-0.92-0.7-1.37
				c-1.96,0.6-4.239,0.75-5.8,1.9c-4.109,3.03-8.12,6.27-11.79,9.82c-14.08,13.59-22.6,29.91-24.16,49.69
				C309.95,265.63,313.13,279.94,317.8,293.99z M358.62,171.66c0,166.43,0,332.88,0,499.44c-49.13,0-98.3,0-147.74,0
				c0-166.47,0-332.95,0-499.44C260.11,171.66,309.34,171.66,358.62,171.66z"/>
			<path d="M348.53,369.75c-4.29,19.76-15.83,34.72-31.221,47.13c-0.619,0.5-1.25,1-1.869,1.49l-1.61-2.02
				c13.05-10.48,22.31-23.32,24.26-40.58c1.34-11.86-0.41-23.5-4.06-34.73c-5.12-15.78-10.98-31.32-16.23-47.05
				c-4.67-14.05-7.85-28.36-6.66-43.39c1.561-19.78,10.08-36.1,24.16-49.69c3.67-3.55,7.681-6.79,11.79-9.82
				c1.561-1.15,3.84-1.3,5.8-1.9c0.23,0.45,0.471,0.91,0.7,1.37c-1.04,0.91-2.03,1.87-3.109,2.72
				c-13.061,10.15-22.591,22.61-25.271,39.36c-2.14,13.37-0.01,26.46,3.91,39.2c5.21,16.92,11.229,33.6,16.36,50.55
				C350.17,337.86,352.03,353.67,348.53,369.75z"/>
			<path d="M338.46,470.7c-0.15-20.119-9.82-35.13-25.04-47.229c-1.25-1-2.5-2-4.17-3.34c1.3-1.09,2.28-1.97,3.31-2.77
				c0.431-0.33,0.851-0.67,1.271-1.01l1.61,2.02c-0.62,0.51-1.24,1-1.87,1.5c4.689,4.23,9.319,8.03,13.52,12.25
				c20.2,20.31,27.32,44.909,21.23,72.56c-3.681,16.74-9.67,32.99-14.87,49.38c-3.851,12.16-7.58,24.28-8.74,37.09
				c-1.979,22,6.29,39.471,22.93,53.41c1.971,1.65,3.971,3.25,6.091,4.99c-2.711,2.06-4.69,1.06-6.74-0.4
				c-30.771-21.96-42.69-53.529-32.74-90.029c4.72-17.29,11.42-34.04,17.11-51.07C335.41,495.93,338.55,483.64,338.46,470.7z"/>
		</g>
		<g>
			<path fill="none" stroke="#FFFFFF" d="M210.88,671.1c0-166.47,0-332.95,0-499.44c49.23,0,98.46,0,147.74,0
				c0,166.43,0,332.88,0,499.44C309.49,671.1,260.32,671.1,210.88,671.1z"/>
			<path fill="none" stroke="#FFFFFF" d="M315.44,418.37c-0.62,0.51-1.24,1-1.87,1.5c4.689,4.23,9.319,8.03,13.52,12.25
				c20.2,20.31,27.32,44.909,21.23,72.56c-3.681,16.74-9.67,32.99-14.87,49.38c-3.851,12.16-7.58,24.28-8.74,37.09
				c-1.979,22,6.29,39.471,22.93,53.41c1.971,1.65,3.971,3.25,6.091,4.99c-2.711,2.06-4.69,1.06-6.74-0.4
				c-30.771-21.96-42.69-53.529-32.74-90.029c4.72-17.29,11.42-34.04,17.11-51.07c4.05-12.12,7.189-24.41,7.1-37.351
				c-0.15-20.119-9.82-35.13-25.04-47.229c-1.25-1-2.5-2-4.17-3.34c1.3-1.09,2.28-1.97,3.31-2.77c0.431-0.33,0.851-0.67,1.271-1.01
				c13.05-10.48,22.31-23.32,24.26-40.58c1.34-11.86-0.41-23.5-4.06-34.73c-5.12-15.78-10.98-31.32-16.23-47.05
				c-4.67-14.05-7.85-28.36-6.66-43.39c1.561-19.78,10.08-36.1,24.16-49.69c3.67-3.55,7.681-6.79,11.79-9.82
				c1.561-1.15,3.84-1.3,5.8-1.9c0.23,0.45,0.471,0.91,0.7,1.37c-1.04,0.91-2.03,1.87-3.109,2.72
				c-13.061,10.15-22.591,22.61-25.271,39.36c-2.14,13.37-0.01,26.46,3.91,39.2c5.21,16.92,11.229,33.6,16.36,50.55
				c4.689,15.47,6.55,31.28,3.05,47.36c-4.29,19.76-15.83,34.72-31.221,47.13C316.69,417.38,316.06,417.88,315.44,418.37z"/>
		</g>
	</g>
</g>
</svg>
